<svg width="185" height="33" viewBox="0 0 185 33" fill="none" xmlns="http://www.w3.org/2000/svg">
<path d="M6.456 5.92V10.464H13.784V14.688H6.456V19.616H14.744V24H0.984V1.536H14.744V5.92H6.456ZM17.2085 15.04C17.2085 13.2053 17.5498 11.5947 18.2325 10.208C18.9365 8.82133 19.8858 7.75467 21.0805 7.008C22.2752 6.26133 23.6085 5.888 25.0805 5.888C26.3392 5.888 27.4378 6.144 28.3765 6.656C29.3365 7.168 30.0725 7.84 30.5845 8.672V6.144H36.0565V24H30.5845V21.472C30.0512 22.304 29.3045 22.976 28.3445 23.488C27.4058 24 26.3072 24.256 25.0485 24.256C23.5978 24.256 22.2752 23.8827 21.0805 23.136C19.8858 22.368 18.9365 21.2907 18.2325 19.904C17.5498 18.496 17.2085 16.8747 17.2085 15.04ZM30.5845 15.072C30.5845 13.7067 30.2005 12.6293 29.4325 11.84C28.6858 11.0507 27.7685 10.656 26.6805 10.656C25.5925 10.656 24.6645 11.0507 23.8965 11.84C23.1498 12.608 22.7765 13.6747 22.7765 15.04C22.7765 16.4053 23.1498 17.4933 23.8965 18.304C24.6645 19.0933 25.5925 19.488 26.6805 19.488C27.7685 19.488 28.6858 19.0933 29.4325 18.304C30.2005 17.5147 30.5845 16.4373 30.5845 15.072ZM47.2793 24.256C45.7219 24.256 44.3353 23.9893 43.1193 23.456C41.9033 22.9227 40.9433 22.1973 40.2393 21.28C39.5353 20.3413 39.1406 19.296 39.0553 18.144H44.4633C44.5273 18.7627 44.8153 19.264 45.3273 19.648C45.8393 20.032 46.4686 20.224 47.2153 20.224C47.8979 20.224 48.4206 20.096 48.7833 19.84C49.1673 19.5627 49.3593 19.2107 49.3593 18.784C49.3593 18.272 49.0926 17.8987 48.5593 17.664C48.0259 17.408 47.1619 17.1307 45.9673 16.832C44.6873 16.5333 43.6206 16.224 42.7673 15.904C41.9139 15.5627 41.1779 15.04 40.5593 14.336C39.9406 13.6107 39.6313 12.64 39.6313 11.424C39.6313 10.4 39.9086 9.472 40.4633 8.64C41.0393 7.78667 41.8713 7.11467 42.9593 6.624C44.0686 6.13333 45.3806 5.888 46.8953 5.888C49.1353 5.888 50.8953 6.44267 52.1753 7.552C53.4766 8.66133 54.2233 10.1333 54.4153 11.968H49.3593C49.2739 11.3493 48.9966 10.8587 48.5273 10.496C48.0793 10.1333 47.4819 9.952 46.7353 9.952C46.0953 9.952 45.6046 10.08 45.2633 10.336C44.9219 10.5707 44.7513 10.9013 44.7513 11.328C44.7513 11.84 45.0179 12.224 45.5513 12.48C46.1059 12.736 46.9593 12.992 48.1113 13.248C49.4339 13.5893 50.5113 13.9307 51.3433 14.272C52.1753 14.592 52.9006 15.1253 53.5193 15.872C54.1593 16.5973 54.4899 17.5787 54.5113 18.816C54.5113 19.8613 54.2126 20.8 53.6153 21.632C53.0393 22.4427 52.1966 23.0827 51.0873 23.552C49.9993 24.0213 48.7299 24.256 47.2793 24.256ZM76.099 6.144L64.899 32.48H59.011L63.107 23.392L55.843 6.144H61.955L66.083 17.312L70.179 6.144H76.099ZM101.019 1.536V5.92H95.067V24H89.595V5.92H83.643V1.536H101.019ZM109.237 9.12C109.877 8.13867 110.677 7.37067 111.637 6.816C112.597 6.24 113.664 5.952 114.837 5.952V11.744H113.333C111.968 11.744 110.944 12.0427 110.261 12.64C109.579 13.216 109.237 14.24 109.237 15.712V24H103.765V6.144H109.237V9.12ZM116.365 15.04C116.365 13.2053 116.706 11.5947 117.389 10.208C118.093 8.82133 119.042 7.75467 120.237 7.008C121.431 6.26133 122.765 5.888 124.237 5.888C125.495 5.888 126.594 6.144 127.533 6.656C128.493 7.168 129.229 7.84 129.741 8.672V6.144H135.213V24H129.741V21.472C129.207 22.304 128.461 22.976 127.501 23.488C126.562 24 125.463 24.256 124.205 24.256C122.754 24.256 121.431 23.8827 120.237 23.136C119.042 22.368 118.093 21.2907 117.389 19.904C116.706 18.496 116.365 16.8747 116.365 15.04ZM129.741 15.072C129.741 13.7067 129.357 12.6293 128.589 11.84C127.842 11.0507 126.925 10.656 125.837 10.656C124.749 10.656 123.821 11.0507 123.053 11.84C122.306 12.608 121.933 13.6747 121.933 15.04C121.933 16.4053 122.306 17.4933 123.053 18.304C123.821 19.0933 124.749 19.488 125.837 19.488C126.925 19.488 127.842 19.0933 128.589 18.304C129.357 17.5147 129.741 16.4373 129.741 15.072ZM147.204 18.88L151.076 6.144H156.9L150.564 24H143.812L137.476 6.144H143.332L147.204 18.88ZM176.035 14.784C176.035 15.296 176.003 15.8293 175.939 16.384H163.555C163.64 17.4933 163.992 18.3467 164.611 18.944C165.251 19.52 166.029 19.808 166.947 19.808C168.312 19.808 169.261 19.232 169.795 18.08H175.619C175.32 19.2533 174.776 20.3093 173.987 21.248C173.219 22.1867 172.248 22.9227 171.075 23.456C169.901 23.9893 168.589 24.256 167.139 24.256C165.389 24.256 163.832 23.8827 162.467 23.136C161.101 22.3893 160.035 21.3227 159.267 19.936C158.499 18.5493 158.115 16.928 158.115 15.072C158.115 13.216 158.488 11.5947 159.235 10.208C160.003 8.82133 161.069 7.75467 162.435 7.008C163.8 6.26133 165.368 5.888 167.139 5.888C168.867 5.888 170.403 6.25067 171.747 6.976C173.091 7.70133 174.136 8.736 174.883 10.08C175.651 11.424 176.035 12.992 176.035 14.784ZM170.435 13.344C170.435 12.4053 170.115 11.6587 169.475 11.104C168.835 10.5493 168.035 10.272 167.075 10.272C166.157 10.272 165.379 10.5387 164.739 11.072C164.12 11.6053 163.736 12.3627 163.587 13.344H170.435ZM184.394 0.32V24H178.922V0.32H184.394Z" fill="white"/>
</svg>
